<?xml version="1.0" standalone="no"?>
<!DOCTYPE svg PUBLIC "-//W3C//DTD SVG 20010904//EN"
 "http://www.w3.org/TR/2001/REC-SVG-20010904/DTD/svg10.dtd">
<svg version="1.0" xmlns="http://www.w3.org/2000/svg"
 width="336.000000pt" height="97.000000pt" viewBox="0 0 336.000000 97.000000"
 preserveAspectRatio="xMidYMid meet">

<g transform="translate(0.000000,97.000000) scale(0.100000,-0.100000)"
fill="#000000" stroke="none">
<path d="M1096 669 c-54 -13 -91 -42 -116 -94 -64 -132 68 -283 213 -244 86
23 127 77 127 169 0 57 -10 81 -48 122 -38 41 -113 61 -176 47z m64 -39 c25
-13 44 -102 38 -176 -4 -44 -10 -62 -28 -76 -27 -22 -31 -22 -56 -4 -17 13
-19 27 -19 126 0 99 2 113 19 126 24 17 22 17 46 4z"/>
<path d="M1393 664 c-3 -8 3 -24 13 -35 26 -29 27 -198 2 -248 -10 -18 -15
-37 -13 -42 3 -4 28 -5 54 -2 27 3 63 1 79 -5 38 -13 48 4 27 45 -15 29 -21
103 -7 103 20 -1 32 -20 43 -69 16 -74 37 -93 101 -89 42 2 55 8 71 30 17 22
19 33 11 55 -10 30 -34 43 -34 19 0 -28 -19 -17 -34 18 -8 19 -22 38 -32 44
-15 8 -13 11 14 17 63 13 80 75 35 125 -36 40 -87 51 -178 40 -40 -5 -87 -5
-108 0 -30 6 -40 5 -44 -6z m221 -50 c18 -47 -10 -94 -56 -94 -14 0 -18 8 -18
36 0 19 5 44 10 55 13 23 55 25 64 3z"/>
<path d="M2225 668 c-22 -5 -61 -7 -87 -4 -55 6 -68 -6 -41 -36 26 -29 32
-201 8 -248 -22 -43 -14 -64 20 -48 19 9 41 9 89 0 83 -16 129 -15 169 1 38
17 53 33 62 70 7 27 7 27 -37 21 -27 -4 -54 -2 -67 5 -20 11 -21 10 -15 -14 8
-31 -10 -55 -41 -55 -32 0 -47 23 -47 71 1 60 15 69 62 41 21 -12 50 -22 64
-22 32 0 66 33 66 63 0 32 -8 38 -31 24 -15 -9 -25 -8 -48 6 -37 21 -70 22
-100 0 l-24 -16 7 43 c8 53 22 72 50 68 17 -3 27 -19 41 -65 0 -1 24 6 53 16
l52 18 -20 26 c-33 42 -102 55 -185 35z"/>
<path d="M2992 670 c-55 -13 -82 -46 -82 -100 0 -56 21 -80 69 -80 37 0 63 39
44 68 -14 23 -58 23 -57 0 1 -10 -4 -18 -12 -18 -8 0 -14 6 -14 13 0 23 23 37
62 37 43 0 42 4 38 -125 -1 -52 -7 -86 -16 -96 -8 -9 -12 -23 -9 -31 5 -13 14
-14 47 -6 25 5 58 5 84 0 51 -11 60 0 33 38 -11 17 -19 52 -22 107 l-5 82 36
18 c38 19 68 64 58 88 -4 11 -11 12 -35 4 -21 -8 -51 -7 -100 0 -77 12 -73 12
-119 1z"/>
<path d="M1844 659 c-2 -3 6 -24 17 -45 17 -33 20 -53 17 -125 -3 -59 -9 -95
-21 -112 -9 -15 -17 -30 -17 -34 0 -10 177 -10 186 0 4 4 -1 16 -12 28 -27 29
-33 193 -10 240 27 53 24 56 -70 55 -47 -1 -88 -4 -90 -7z"/>
<path d="M2510 659 c0 -5 8 -22 18 -36 26 -40 25 -222 -2 -252 -28 -30 -15
-51 26 -42 18 4 45 4 61 0 34 -9 37 14 5 48 -16 17 -23 39 -26 84 l-5 61 74
-71 c68 -66 72 -73 56 -85 -34 -26 -11 -41 59 -40 71 2 97 18 66 40 -14 10
-18 33 -20 119 -4 97 -2 110 17 136 32 43 27 49 -44 49 -71 0 -76 -6 -46 -48
11 -15 23 -47 26 -71 l7 -44 -56 49 c-48 41 -56 53 -54 78 l3 29 -82 2 c-47 2
-83 -1 -83 -6z"/>
<path d="M257 622 c-22 -24 -21 -35 1 -55 25 -23 39 -21 58 8 16 24 16 27 -1
45 -22 25 -37 25 -58 2z m35 -44 c-13 -13 -26 8 -17 30 6 16 7 16 17 -1 7 -13
7 -22 0 -29z"/>
<path d="M345 598 c0 -30 4 -38 18 -38 10 0 15 5 12 10 -11 17 7 11 21 -7 11
-15 15 -16 26 -4 10 11 10 14 1 18 -8 3 -11 14 -7 29 6 25 5 26 -46 28 -23 2
-26 -2 -25 -36z m45 12 c0 -5 -4 -10 -10 -10 -5 0 -10 5 -10 10 0 6 5 10 10
10 6 0 10 -4 10 -10z"/>
<path d="M520 633 c-11 -2 -16 -15 -16 -38 0 -27 4 -34 23 -38 13 -2 31 2 40
9 14 10 14 13 4 14 -8 0 -11 3 -7 7 3 4 -4 13 -16 21 -13 7 -15 11 -6 8 22 -7
33 10 12 18 -9 3 -16 5 -17 5 -1 -1 -9 -3 -17 -6z m30 -59 c0 -8 -4 -12 -10
-9 -5 3 -10 10 -10 16 0 5 5 9 10 9 6 0 10 -7 10 -16z"/>
<path d="M652 633 c-6 -2 -10 -9 -6 -14 3 -5 0 -9 -5 -9 -6 0 -11 5 -11 10 0
6 -8 10 -17 10 -14 0 -18 -8 -18 -35 0 -21 5 -35 12 -35 7 0 10 7 7 15 -5 11
-2 13 10 9 9 -3 16 -10 16 -15 0 -5 6 -9 13 -9 7 0 12 15 12 40 1 22 1 40 0
39 0 0 -6 -3 -13 -6z"/>
<path d="M693 633 c-18 -7 -16 -32 3 -40 8 -3 13 -12 10 -19 -3 -9 2 -14 14
-14 15 0 20 7 20 24 0 14 5 28 10 31 6 3 10 9 10 13 0 8 -49 12 -67 5z"/>
<path d="M445 595 c0 -25 4 -35 16 -35 11 0 15 9 15 35 -1 49 -31 49 -31 0z"/>
<path d="M3212 464 c-41 -28 -19 -94 32 -94 26 0 56 29 56 53 0 20 -34 57 -53
57 -7 0 -23 -7 -35 -16z m66 -36 c2 -16 -2 -28 -8 -28 -6 0 -10 10 -8 22 2 15
-3 24 -15 26 -20 4 -32 -20 -23 -45 6 -14 9 -15 15 -4 6 10 10 10 16 1 10 -16
0 -23 -23 -16 -46 15 -32 80 16 74 21 -2 28 -9 30 -30z"/>
<path d="M110 175 l0 -75 45 0 c25 0 45 5 45 10 0 6 -11 10 -25 10 -18 0 -25
5 -25 20 0 13 7 20 20 20 11 0 20 7 20 15 0 8 -9 15 -20 15 -11 0 -20 7 -20
15 0 9 9 15 25 15 16 0 25 6 25 15 0 11 -12 15 -45 15 l-45 0 0 -75z"/>
<path d="M240 175 l0 -75 40 0 c29 0 40 4 40 15 0 8 -9 15 -20 15 -18 0 -20 7
-20 60 0 53 -2 60 -20 60 -18 0 -20 -7 -20 -75z"/>
<path d="M360 175 l0 -75 50 0 c53 0 70 16 23 22 -34 4 -46 38 -14 38 12 0 21
6 21 15 0 8 -9 15 -20 15 -11 0 -20 7 -20 15 0 10 10 15 30 15 20 0 30 5 30
15 0 11 -12 15 -50 15 l-50 0 0 -75z"/>
<path d="M507 232 c-19 -21 -22 -83 -7 -113 19 -35 100 -21 100 18 0 18 -37
16 -44 -3 -10 -26 -26 -5 -26 36 0 43 17 62 32 36 11 -20 38 -21 38 -2 0 42
-64 60 -93 28z"/>
<path d="M630 236 c0 -8 7 -16 15 -20 11 -4 15 -21 15 -61 0 -42 3 -55 15 -55
12 0 15 13 15 55 0 40 4 57 15 61 8 4 15 12 15 20 0 10 -13 14 -45 14 -32 0
-45 -4 -45 -14z"/>
<path d="M760 175 c0 -60 3 -75 15 -75 9 0 15 9 15 25 0 14 4 25 9 25 5 0 12
-11 15 -25 4 -16 13 -25 27 -25 20 0 21 7 2 56 -2 7 0 15 6 19 16 9 13 41 -5
59 -8 9 -31 16 -50 16 l-34 0 0 -75z m55 27 c0 -18 -20 -15 -23 4 -3 10 1 15
10 12 7 -3 13 -10 13 -16z"/>
<path d="M900 175 c0 -68 2 -75 20 -75 18 0 20 7 20 75 0 68 -2 75 -20 75 -18
0 -20 -7 -20 -75z"/>
<path d="M1004 236 c-23 -17 -27 -94 -5 -119 19 -24 78 -22 91 2 14 27 13 31
-6 31 -9 0 -22 -8 -29 -17 -11 -15 -13 -15 -24 6 -13 24 -6 81 10 81 5 0 12
-7 15 -15 6 -15 44 -21 44 -7 0 4 -7 18 -16 30 -17 25 -51 29 -80 8z"/>
<path d="M1231 236 c-7 -9 -10 -23 -7 -32 4 -10 -1 -25 -10 -35 -11 -12 -14
-27 -10 -44 6 -23 11 -25 64 -25 l57 0 1 40 c1 28 -3 40 -12 40 -8 0 -14 -5
-14 -11 0 -5 -5 -7 -10 -4 -8 5 -7 11 0 20 6 8 10 24 8 37 -4 28 -48 37 -67
14z m33 -107 c-8 -13 -24 -1 -24 18 0 13 3 13 15 3 8 -7 12 -16 9 -21z"/>
<path d="M1457 232 c-20 -22 -23 -102 -5 -120 7 -7 31 -12 55 -12 l43 0 0 40
c0 38 -2 40 -30 40 -31 0 -44 -26 -15 -32 10 -2 12 -8 6 -17 -15 -23 -31 -2
-31 39 0 42 17 62 32 37 10 -18 38 -12 38 9 0 33 -67 44 -93 16z"/>
<path d="M1625 238 c-3 -7 -13 -41 -24 -75 -18 -60 -18 -63 -1 -63 10 0 20 7
24 15 7 19 32 19 40 0 3 -8 15 -15 27 -15 13 0 19 5 16 13 -3 7 -13 41 -22 75
-14 48 -22 62 -37 62 -10 0 -21 -6 -23 -12z m25 -69 c0 -11 -4 -18 -10 -14 -5
3 -7 12 -3 20 7 21 13 19 13 -6z"/>
<path d="M1752 238 c-22 -22 -14 -58 18 -76 16 -9 30 -20 30 -24 0 -12 -18
-19 -25 -8 -7 12 -45 14 -45 2 0 -29 74 -44 98 -20 22 22 14 57 -18 73 -16 9
-30 20 -30 25 0 13 13 13 26 0 5 -5 15 -6 23 0 12 7 12 11 2 24 -16 19 -62 21
-79 4z"/>
<path d="M1975 238 c-3 -7 -13 -41 -24 -75 -18 -60 -18 -63 -1 -63 10 0 20 7
24 15 7 19 32 19 40 0 3 -8 15 -15 27 -15 13 0 19 5 16 13 -3 7 -13 41 -22 75
-14 48 -22 62 -37 62 -10 0 -21 -6 -23 -12z m25 -69 c0 -11 -4 -18 -10 -14 -5
3 -7 12 -3 20 7 21 13 19 13 -6z"/>
<path d="M2090 175 c0 -68 2 -75 20 -75 14 0 20 7 20 23 0 16 9 26 30 34 24 9
30 17 30 42 0 35 -22 51 -69 51 l-31 0 0 -75z m60 25 c0 -11 -4 -20 -10 -20
-5 0 -10 9 -10 20 0 11 5 20 10 20 6 0 10 -9 10 -20z"/>
<path d="M2230 175 c0 -68 2 -75 20 -75 14 0 20 7 20 23 0 16 9 26 30 34 24 9
30 17 30 42 0 35 -22 51 -69 51 l-31 0 0 -75z m60 25 c0 -11 -4 -20 -10 -20
-5 0 -10 9 -10 20 0 11 5 20 10 20 6 0 10 -9 10 -20z"/>
<path d="M2370 175 l0 -75 40 0 c29 0 40 4 40 15 0 8 -9 15 -20 15 -18 0 -20
7 -20 60 0 53 -2 60 -20 60 -18 0 -20 -7 -20 -75z"/>
<path d="M2490 175 c0 -68 2 -75 20 -75 18 0 20 7 20 75 0 68 -2 75 -20 75
-18 0 -20 -7 -20 -75z"/>
<path d="M2606 242 c-5 -8 -45 -131 -46 -139 0 -2 9 -3 20 -3 11 0 20 7 20 15
0 8 9 15 20 15 11 0 20 -7 20 -15 0 -9 9 -15 24 -15 l24 0 -22 72 c-21 69 -44
96 -60 70z m24 -77 c0 -8 -4 -15 -10 -15 -5 0 -10 7 -10 15 0 8 5 15 10 15 6
0 10 -7 10 -15z"/>
<path d="M2720 175 c0 -60 3 -75 15 -75 10 0 15 11 16 38 l1 37 15 -37 c10
-25 22 -38 34 -38 17 0 19 8 19 75 0 60 -3 75 -15 75 -10 0 -15 -11 -16 -32
l-1 -33 -14 33 c-9 21 -21 32 -34 32 -18 0 -20 -7 -20 -75z"/>
<path d="M2884 236 c-23 -17 -27 -94 -5 -119 19 -24 78 -22 91 2 14 27 13 31
-6 31 -9 0 -22 -8 -29 -17 -11 -15 -13 -15 -24 6 -13 24 -6 81 10 81 5 0 12
-7 15 -15 6 -15 44 -21 44 -7 0 4 -7 18 -16 30 -17 25 -51 29 -80 8z"/>
<path d="M3020 175 l0 -75 45 0 c25 0 45 5 45 10 0 6 -11 10 -25 10 -18 0 -25
5 -25 20 0 13 7 20 20 20 11 0 20 7 20 15 0 8 -9 15 -20 15 -11 0 -20 7 -20
15 0 9 9 15 25 15 16 0 25 6 25 15 0 11 -12 15 -45 15 l-45 0 0 -75z"/>
<path d="M3156 234 c-28 -28 -12 -64 34 -79 11 -3 20 -10 20 -15 0 -14 -18
-21 -25 -10 -7 12 -45 14 -45 2 0 -31 77 -44 100 -17 19 23 4 61 -30 75 -31
13 -40 30 -17 30 7 0 17 -4 23 -10 5 -5 15 -6 22 -1 11 6 10 11 -3 25 -21 20
-59 21 -79 0z"/>
</g>
</svg>
